# xmcd CD database file
#
# Track frame offsets:
#	150
#	28580
#	62342
#	80079
#	104257
#	120129
#	151202
#	174055
#	204652
#	226432
#	252252
#
# Disc length: 3640 seconds
#
# Revision: 2
# Processed by: cddbd v1.5PL3 Copyright (c) Steve Scherf et al.
# Submitted via: CDex 1.50
#
DISCID=7c0e360b
DTITLE=Amanda Sedgwick - Reunion
DYEAR=2003
DGENRE=Jazz
TTITLE0=Sylvia
TTITLE1=To my friends
TTITLE2=I've never been in love before
TTITLE3=Rue Hamra
TTITLE4=Blue Jay
TTITLE5=Stay as sweet as you are
TTITLE6=When did you stop loving me, when did I stop loving you
TTITLE7=Sorcerer of antiquity
TTITLE8=Ugetsy
TTITLE9=Brown silk
TTITLE10=Reunion
EXTD=YEAR: 2003
EXTT0=
EXTT1=
EXTT2=
EXTT3=
EXTT4=
EXTT5=
EXTT6=
EXTT7=
EXTT8=
EXTT9=
EXTT10=
PLAYORDER=
